# xmcd
# 
# Track frame offsets:
#	150
#	16575
#	26083
#	39790
#	50774
#	66119
#	83647
#	96649
#	114734
#	126012
#
# Disc length: 1876 seconds
#
# Revision: 1
# Processed by: cddbd v1.4PL0 Copyright (c) Steve Scherf et al.
# Submitted via: Audio-CD-Archiv 2.10.438
#
DISCID=7c07520a
DTITLE=Vern Gosdin - Chiseled In Stone
DYEAR=1900
DGENRE=country
TTITLE0=Do You Believe Me Now
TTITLE1=Tight As Twin Fiddles
TTITLE2=Is It Raining At Your House
TTITLE3=Set 'em Up Joe
TTITLE4=There Ain't Nothing Wrong (Just Ain't Nothing Right)
TTITLE5=Chiseled In Stone
TTITLE6=Who You Gonna Blame it on This Time
TTITLE7=It's Not Over, Yet
TTITLE8=Nobody Calls From Vegas Just To Say Hello
TTITLE9=I Guess I Had Your Leavin' Coming
EXTD=
EXTT0=
EXTT1=
EXTT2=
EXTT3=
EXTT4=
EXTT5=
EXTT6=
EXTT7=
EXTT8=
EXTT9=
PLAYORDER=
